<?xml version="1.0" encoding="utf-8"?>
<!-- Generator: Adobe Illustrator 18.1.1, SVG Export Plug-In . SVG Version: 6.00 Build 0)  -->
<svg version="1.1" id="Livello_1" xmlns="http://www.w3.org/2000/svg" xmlns:xlink="http://www.w3.org/1999/xlink" x="0px" y="0px"
	 viewBox="0 0 170 50" enable-background="new 0 0 170 50" xml:space="preserve">
<g>
	<g>
		<g>
			<g>
				<path fill="#2B2D32" d="M3.8,49.3H0V50h21V36.7h-0.6c0,0,0,7.7-2.5,10.2c-2.1,2.1-4.4,2.3-8.1,2.3V24.8c0,0,2.5-0.2,3.8,1.1
					c2,2,2.1,4.5,2.1,7.9h0.7V15h-0.7c0,3.5-0.2,5.9-2.1,7.9C12.3,24.2,9.7,24,9.7,24V0.8c3.7,0,5.4,0.2,7.6,2.3
					c2.5,2.5,2.5,10.2,2.5,10.2h0.6V0H0v0.7h3.8V49.3z"/>
			</g>
			<g>
				<path fill="#2B2D32" d="M59.6,0.7v48.5c3.7,0,5.9-0.2,8.1-2.3c2.5-2.5,2.5-10.2,2.5-10.2h0.6V50h-21v-0.7h3.8V0.7h-3.8V0h13.2
					v0.7H59.6z"/>
			</g>
			<g>
				<path fill="#2B2D32" d="M109.1,0.7v48.5c3.7,0,5.9-0.2,8.1-2.3c2.5-2.5,2.5-10.2,2.5-10.2h0.6V50h-21v-0.7h3.8V0.7h-3.8V0h13.2
					v0.7H109.1z"/>
			</g>
			<g>
				<path fill="#2B2D32" d="M152.8,49.3H149V50h21V36.7h-0.6c0,0,0,7.7-2.5,10.2c-2.1,2.1-4.4,2.3-8.1,2.3V24.8c0,0,2.5-0.2,3.8,1.1
					c2,2,2.1,4.5,2.1,7.9h0.7V15h-0.7c0,3.5-0.2,5.9-2.1,7.9c-1.2,1.2-3.8,1.1-3.8,1.1V0.8c3.7,0,5.4,0.2,7.6,2.3
					c2.5,2.5,2.5,10.2,2.5,10.2h0.6V0H149v0.7h3.8V49.3z"/>
			</g>
		</g>
		<g>
			<rect x="131" y="20.6" fill="#2B2D32" width="2.2" height="8.9"/>
		</g>
		<g>
			<polygon fill="#2B2D32" points="139.4,20.6 137.7,20.6 137.7,17.1 135.5,17.1 135.5,20.6 134.6,20.6 134.6,22.8 135.5,22.8 
				135.5,29.5 137.7,29.5 137.7,22.8 139.4,22.8 			"/>
		</g>
		<g>
			<circle fill="#2B2D32" cx="132.1" cy="17" r="1.4"/>
		</g>
	</g>
</g>
</svg>
