<?xml version="1.0" encoding="utf-8"?>
<!-- Generator: Adobe Illustrator 18.1.1, SVG Export Plug-In . SVG Version: 6.00 Build 0)  -->
<svg version="1.1" id="Livello_1" xmlns="http://www.w3.org/2000/svg" xmlns:xlink="http://www.w3.org/1999/xlink" x="0px" y="0px"
	 viewBox="0 0 170 60" enable-background="new 0 0 170 60" xml:space="preserve">
<g>
	<g>
		<g>
			<polygon fill="#2B2D32" points="43.6,0.1 43.6,9.1 43.6,50.7 43.6,59.6 54.1,59.6 67.6,59.6 67.6,48.8 55.6,48.8 55.6,32.9 
				66.6,32.9 66.6,22.2 55.6,22.2 55.6,11 67.6,11 67.6,0.1 54.1,0.1 			"/>
			<polygon fill="#2B2D32" points="169,11 169,0.1 155.5,0.1 144.9,0.1 144.9,9.1 144.9,50.7 144.9,59.6 155.5,59.6 169,59.6 
				169,48.8 157,48.8 157,32.9 167.9,32.9 167.9,22.2 157,22.2 157,11 			"/>
			<polygon fill="#2B2D32" points="111.5,11 120.9,11 120.9,59.6 132.9,59.6 132.9,11 142.2,11 142.2,0.1 111.5,0.1 			"/>
			<polygon fill="#2B2D32" points="96.8,31.3 83.6,0.1 71.6,0.1 71.6,59.6 83.6,59.6 83.6,28.4 96.8,59.6 108.8,59.6 108.8,0.1 
				96.8,0.1 			"/>
		</g>
		<path fill="#2B2D32" d="M20.5,28v10.2l9.4-0.1c-0.6,7-2.5,12.4-8.3,12.4c-7,0-8.6-9.6-8.6-19.9c0-10.3,2-18.7,8.6-18.7
			c4.3,0,6.7,2.8,6.7,7.1l11.1,0C37.9,4.9,30.6,0,20.6,0C8,0,0.2,13.4,0.2,29.9c0,23.1,9.5,29.9,20.3,29.9
			c16.6,0,20.3-10.7,20.3-29.9c0-0.7,0-1.3,0-1.9H20.5z"/>
	</g>
</g>
</svg>
