<?xml version="1.0" encoding="utf-8"?>
<!-- Generator: Adobe Illustrator 20.0.0, SVG Export Plug-In . SVG Version: 6.00 Build 0)  -->
<svg version="1.1" id="Livello_1" xmlns="http://www.w3.org/2000/svg" xmlns:xlink="http://www.w3.org/1999/xlink" x="0px" y="0px"
	 viewBox="0 0 108.8 31.7" style="enable-background:new 0 0 108.8 31.7;" xml:space="preserve">
<style type="text/css">
	.st0{fill:#000004;}
</style>
<g>
	<g>
		<g>
			<g>
				<path class="st0" d="M13.6,0h-2L0,31.7h1.9L7,17.8h11.1l5,13.9h1.9L13.6,0z M7.7,16l4.9-13.3L17.4,16H7.7z"/>
			</g>
		</g>
		<g>
			<rect x="85.9" class="st0" width="1.8" height="31.7"/>
		</g>
		<g>
			<polygon class="st0" points="108.8,30 94.7,30 94.7,16.8 108.8,16.8 108.8,14.9 94.7,14.9 94.7,1.9 108.8,1.9 108.8,0 94.7,0 
				94.7,0 92.9,0 92.9,31.7 108.8,31.7 			"/>
		</g>
		<g>
			<polygon class="st0" points="29.3,2.6 50.1,31.7 52.7,31.7 52.7,0 50.8,0 50.8,29.6 29.6,0 27.4,0 27.4,31.7 29.3,31.7 			"/>
		</g>
		<g>
			<polygon class="st0" points="78.8,2.6 78.8,31.7 80.6,31.7 80.6,0 78.4,0 57.2,29.6 57.2,0 55.4,0 55.4,31.7 58,31.7 			"/>
		</g>
	</g>
</g>
</svg>
