<?xml version="1.0" encoding="utf-8"?>
<!-- Generator: Adobe Illustrator 18.1.1, SVG Export Plug-In . SVG Version: 6.00 Build 0)  -->
<svg version="1.1" id="Livello_1" xmlns="http://www.w3.org/2000/svg" xmlns:xlink="http://www.w3.org/1999/xlink" x="0px" y="0px"
	 viewBox="0 0 250 45" enable-background="new 0 0 250 45" xml:space="preserve">
<g>
	<g>
		<g>
			<polygon fill="#2B2D32" points="1.3,0.6 0,0.6 0,0.3 11.1,0.3 11.1,0.6 8,0.6 14.2,32.8 20.5,0.6 16.9,0.6 16.9,0.3 22.7,0.3 
				22.7,0.6 20.9,0.6 12.3,44.5 9.8,44.5 			"/>
			<path fill="#2B2D32" d="M16.7,44.2h1.8l8.6-43.9h2.4l8.6,43.9h1.3v0.3H28.4v-0.3h3.1l-2.7-13.7h-7.1l-2.7,13.7h3.6v0.3h-5.8V44.2
				z M21.6,30.2h7.1l-3.5-18.2L21.6,30.2z"/>
			<polygon fill="#2B2D32" points="39.9,44.2 41.7,44.2 41.7,0.6 39.1,0.6 39.1,0.3 48.1,0.3 58.6,28.4 58.6,0.6 55.3,0.6 55.3,0.3 
				61,0.3 61,0.6 59,0.6 59,44.6 57.6,44.6 42,2.1 42,44.2 45.4,44.2 45.4,44.5 39.9,44.5 			"/>
			<polygon fill="#2B2D32" points="62.3,44.5 62.3,44.2 64.1,44.2 64.1,0.6 62.3,0.6 62.3,0.3 72.7,0.3 72.7,0.6 70.9,0.6 
				70.9,44.2 72.7,44.2 72.7,44.5 			"/>
			<path fill="#2B2D32" d="M79.5,44.5v-0.3h2V0.6h-0.1c-3.2,0-6.5,4.2-7.1,16.9H74V0.3h21.9v17.3h-0.3C95,4.8,91.4,0.6,88.5,0.6
				h-0.2v43.6h2.1v0.3H79.5z"/>
			<polygon fill="#2B2D32" points="102.6,44.5 102.6,44.2 104.6,44.2 104.6,23.5 98.2,0.6 96.9,0.6 96.9,0.3 107.9,0.3 107.9,0.6 
				104.8,0.6 111.2,22.7 116.3,0.6 112.6,0.6 112.6,0.3 118.2,0.3 118.2,0.6 116.6,0.6 111.4,23.5 111.4,44.2 113.5,44.2 
				113.5,44.5 			"/>
			<path fill="#2B2D32" d="M125.1,44.5v-0.3h1.8V0.6h-1.8V0.3h19.1v13.2h-0.3c-0.6-9.9-4.1-12.9-8.9-12.9h-1.3v20.7h0.7
				c3.9,0,5.2-2,5.6-7.8h0.3v16.2H140c-0.4-6.3-1.7-8.2-5.2-8.2h-1.1v22.7h2.6v0.3H125.1z"/>
			<path fill="#2B2D32" d="M140.7,44.2h1.8l8.6-43.9h2.4l8.6,43.9h1.3v0.3h-11.1v-0.3h3.1l-2.7-13.7h-7.1l-2.7,13.7h3.6v0.3h-5.8
				V44.2z M145.6,30.2h7.1l-3.5-18.2L145.6,30.2z"/>
			<polygon fill="#2B2D32" points="164.2,44.5 164.2,44.2 166,44.2 166,0.6 164.2,0.6 164.2,0.3 174.6,0.3 174.6,0.6 172.8,0.6 
				172.8,44.2 174.6,44.2 174.6,44.5 			"/>
			<path fill="#2B2D32" d="M190.6,38.8V28c0-5.8-1.7-7.1-4.8-7.1h-1.5v23.3h2.7v0.3h-11.3v-0.3h1.8V0.6h-1.8V0.3h9.8
				c7.2,0,11.9,3.3,11.9,10.9c0,6.6-4.1,9-10.1,9.6v0.1c6.2,0.8,9.9,3,9.9,10.8v10.8c0,1.4,0.5,1.7,1.2,1.7c0.5,0,0.9-0.1,1.2-0.2
				v0.3c-0.4,0.2-1.5,0.7-3.1,0.7C192.8,44.9,190.6,43.5,190.6,38.8 M184.3,0.6v20.1h0.9c3.3,0,5.7-0.2,5.7-8.3v-2.2
				c0-7.9-2.4-9.6-5.3-9.6H184.3z"/>
		</g>
		<g>
			<path fill="#2B2D32" d="M226.1,38.2c0,0-1,2.4-3.5,3.5c-0.9,0.4-2,0.6-3,0.3c-2-0.9-0.6-4.7-0.6-4.7l3.5-9.2
				c0.3-0.7,0.6-1.5,0.8-2.2c1-3,1.9-5.5,2.1-9.2c0.1-2.4-1.4-4.1-3.6-4.7c-3.1-0.7-6.5,0.9-8.4,3.7l-1.8,2.5l0.7,0.5l1.6-2.3
				c2.3-3,4.2-3.1,4.9-1.9s0,4.2,0,4.2c-1,3.3-2.3,6.5-3.5,9.8c-1.2,3.2-2.4,6.4-3.4,9.7c-0.6,2.2,0.2,4.3,2.2,5.7
				c3.9,2.6,10.8-0.1,12.9-5.5l0.5-1.3l-0.9-0.4L226.1,38.2z"/>
			<path fill="#2B2D32" d="M225.9,0c-2.2,0-4,1.6-4.1,3.8c0,2.1,1.7,3.9,4,3.9c2.2,0,4-1.7,4-3.9C229.7,1.7,228,0,225.9,0z"/>
			<path fill="#2B2D32" d="M205.4,37.4c-2.1,0-3.7,1.7-3.7,3.8c0,2.1,1.8,3.8,3.8,3.8c2,0,3.7-1.8,3.7-3.9
				C209.2,39,207.5,37.4,205.4,37.4z"/>
			<path fill="#2B2D32" d="M236.8,37.9c0.4-1.3,0.8-2.5,1.2-3.8c1.8-5.6,3.6-11.3,5.3-16.9l1.1-3.6h5.2l0.4-1.1h-5.3l3.5-11.4
				c-0.7,0-1.3,0-1.9,0c0,0-4-0.1-5-0.1l-3.6,11.5h-5.5l-0.3,1.1h5.5l-2,6.3c-1.6,5.1-3.2,10.2-4.8,15.3c-0.5,1.6-0.8,3.3-0.8,4.9
				c-0.1,2.8,1.5,4.4,4.2,4.9c3.6,0.6,7.9-2.2,10.2-6.2l0.7-1.2l-0.8-0.3l-0.7,1c-1,1.5-2.4,2.9-4.1,3.6c-0.9,0.4-2.4,0.6-3-0.3
				c-0.3-0.5-0.2-1.2-0.1-1.7C236.4,39.2,236.6,38.5,236.8,37.9z"/>
		</g>
	</g>
</g>
</svg>
