<?xml version="1.0" encoding="utf-8"?>
<!-- Generator: Adobe Illustrator 18.1.1, SVG Export Plug-In . SVG Version: 6.00 Build 0)  -->
<svg version="1.1" id="Livello_1" xmlns="http://www.w3.org/2000/svg" xmlns:xlink="http://www.w3.org/1999/xlink" x="0px" y="0px"
	 viewBox="0 0 196 70" enable-background="new 0 0 196 70" xml:space="preserve">
<g>
	<g>
		<path fill="#2B2D32" d="M13.3,57.4L2.3,5.9h5.9l5.1,26c1.3,6.4,2.4,12.8,3.2,17.8h0.1c0.7-5.1,2-11.2,3.5-17.9l5.8-26h5.8L37,32
			c1.2,6.1,2.4,12.2,3,17.6h0.1c0.9-5.6,2.1-11.4,3.5-17.8l5.7-26H55L42.8,57.4H37l-5.4-26.8C30.2,24,29.3,19,28.7,13.8h-0.1
			c-0.7,5.1-1.7,10.2-3.3,16.8l-6.1,26.8H13.3z"/>
		<path fill="#2B2D32" d="M110,5.9v51.4h-4.9V5.9H110z"/>
		<polygon fill="#2B2D32" points="89.2,5.9 89.2,28.6 66.6,28.6 66.6,5.9 66.1,5.9 61.6,5.9 61.6,57.4 66.1,57.4 66.6,57.4 
			66.6,33.3 89.2,33.3 89.2,57.4 93.6,57.4 93.6,5.9 		"/>
		<polygon fill="#2B2D32" points="149.1,5.8 118.6,5.8 118.6,11 131.2,11 131.2,57.4 131.4,57.4 136.2,57.4 136.3,57.4 136.3,11 
			149.1,11 		"/>
		<path fill="#2B2D32" d="M187,33.8h-23.4v18.4H187v5.2h-28.4V5.9H187v5.6h-23.4v17H187V33.8z"/>
		<g>
			<path fill="#2B2D32" d="M194.4,3.4c0,1.5-1.2,2.8-2.8,2.8s-2.8-1.2-2.8-2.8c0-1.5,1.3-2.8,2.9-2.8C193.2,0.6,194.4,1.8,194.4,3.4
				z M189.4,3.4c0,1.2,0.9,2.2,2.2,2.2c1.2,0,2.1-1,2.1-2.2c0-1.2-0.9-2.2-2.1-2.2C190.4,1.2,189.4,2.2,189.4,3.4z M191.1,4.8h-0.6
				V2c0.3,0,0.6-0.1,1.1-0.1c0.5,0,0.8,0.1,0.9,0.2c0.2,0.1,0.3,0.3,0.3,0.6c0,0.3-0.3,0.6-0.6,0.7v0c0.3,0.1,0.4,0.3,0.5,0.7
				c0.1,0.4,0.2,0.6,0.2,0.7h-0.7c-0.1-0.1-0.1-0.3-0.2-0.7c-0.1-0.3-0.2-0.4-0.6-0.4h-0.3V4.8z M191.2,3.3h0.3
				c0.4,0,0.6-0.1,0.6-0.4c0-0.3-0.2-0.4-0.6-0.4c-0.2,0-0.3,0-0.4,0V3.3z"/>
		</g>
		<g>
			<path fill="#2B2D32" d="M73.6,69.9v-4.6l-3,4.6h-0.5L67,65.3v4.6h-1.1v-5.5h1.6l2.8,4.2l2.8-4.2h1.6v5.5H73.6z"/>
			<path fill="#2B2D32" d="M82.7,69.9v-5.5h1.1v5.5H82.7z"/>
			<path fill="#2B2D32" d="M91.7,69.9v-5.5h1.1v4.9H97v0.6H91.7z"/>
			<path fill="#2B2D32" d="M110.8,69.9l-0.8-1.2h-4.5l-0.8,1.2h-1.3l3.6-5.5h1.4l3.6,5.5H110.8z M107.8,65.1l-1.9,3h3.8L107.8,65.1z
				"/>
			<path fill="#2B2D32" d="M125.5,69.9l-5.2-4.4v4.4h-1.1v-5.5h1.1l5.2,4.3v-4.3h1.1v5.5H125.5z"/>
			<path fill="#2B2D32" d="M134.3,67.2c0-1.6,1.8-2.8,4.5-2.8c2.7,0,4.5,1.2,4.5,2.8c0,1.6-1.8,2.8-4.5,2.8
				C136.1,70,134.3,68.8,134.3,67.2z M142.1,67.2c0-1.3-1.3-2.2-3.3-2.2c-2,0-3.3,0.9-3.3,2.2c0,1.3,1.3,2.2,3.3,2.2
				C140.7,69.4,142.1,68.4,142.1,67.2z"/>
		</g>
	</g>
</g>
</svg>
